<svg width="180" height="180" viewBox="0 0 180 180" fill="none" xmlns="http://www.w3.org/2000/svg">
<rect width="180" height="180" fill="#1B1714"/>
<path d="M42.363 55.5H29.2732C25.7548 55.5 22.7094 57.9458 21.95 61.3812L9.51574 117.631C8.48084 122.313 12.0443 126.75 16.839 126.75H29.6327C33.137 126.75 36.1742 124.323 36.9477 120.906L49.678 64.6555C50.7397 59.9641 47.1731 55.5 42.363 55.5Z" fill="#F7F2E8" fill-opacity="0.4"/>
<path d="M102.423 41.625H89.3147C85.7774 41.625 82.721 44.0965 81.9807 47.5554L63.3883 134.427C62.4065 139.014 65.8299 143.367 70.5196 143.494L83.0529 143.833C86.6495 143.93 89.8084 141.459 90.5807 137.945L109.748 50.735C110.776 46.0557 107.214 41.625 102.423 41.625Z" fill="#F7F2E8" fill-opacity="0.7"/>
<path d="M163.235 27.375H150.071C146.531 27.375 143.473 29.8507 142.736 33.3134L117.429 152.188C116.436 156.855 119.994 161.25 124.765 161.25H137.929C141.469 161.25 144.527 158.774 145.264 155.312L170.571 36.4367C171.564 31.7705 168.006 27.375 163.235 27.375Z" fill="#F7F2E8"/>
</svg>
