<svg width="192" height="192" viewBox="0 0 192 192" fill="none" xmlns="http://www.w3.org/2000/svg">
<rect width="192" height="192" fill="#1B1714"/>
<path d="M45.1872 59.2H31.2247C27.4718 59.2 24.2233 61.8088 23.4133 65.4733L10.1501 125.473C9.04623 130.467 12.8472 135.2 17.9615 135.2H31.6082C35.3461 135.2 38.5858 132.612 39.4109 128.966L52.9898 68.9659C54.1224 63.9617 50.3179 59.2 45.1872 59.2Z" fill="#F7F2E8" fill-opacity="0.4"/>
<path d="M109.251 44.4H95.269C91.4959 44.4 88.2358 47.0363 87.4461 50.7258L67.6142 143.389C66.5669 148.282 70.2186 152.925 75.2209 153.06L88.5898 153.421C92.4261 153.525 95.7956 150.89 96.6194 147.142L117.064 54.1173C118.161 49.1261 114.361 44.4 109.251 44.4Z" fill="#F7F2E8" fill-opacity="0.7"/>
<path d="M174.118 29.2H160.076C156.3 29.2 153.038 31.8407 152.252 35.5343L125.258 162.334C124.198 167.311 127.994 172 133.082 172H147.124C150.9 172 154.162 169.359 154.948 165.666L181.942 38.8658C183.002 33.8885 179.206 29.2 174.118 29.2Z" fill="#F7F2E8"/>
</svg>
