<svg width="512" height="512" viewBox="0 0 512 512" fill="none" xmlns="http://www.w3.org/2000/svg">
<rect width="512" height="512" fill="#F7F2E8"/>
<path d="M120.499 157.867H83.2659C73.2581 157.867 64.5955 164.824 62.4354 174.595L27.067 334.595C24.1233 347.912 34.2592 360.533 47.8974 360.533H84.2885C94.2563 360.533 102.895 353.631 105.096 343.909L141.306 183.909C144.326 170.564 134.181 157.867 120.499 157.867Z" fill="#1B1714" fill-opacity="0.4"/>
<path d="M291.336 118.4H254.051C243.989 118.4 235.296 125.43 233.19 135.269L180.305 382.37C177.512 395.419 187.25 407.8 200.589 408.16L236.24 409.124C246.47 409.4 255.455 402.373 257.652 392.377L312.172 144.313C315.097 131.003 304.963 118.4 291.336 118.4Z" fill="#1B1714" fill-opacity="0.7"/>
<path d="M464.314 77.8667H426.87C416.8 77.8667 408.101 84.9086 406.005 94.758L334.021 432.891C331.195 446.164 341.317 458.667 354.887 458.667H392.331C402.401 458.667 411.1 451.625 413.196 441.775L485.18 103.642C488.006 90.3694 477.884 77.8667 464.314 77.8667Z" fill="#1B1714"/>
</svg>
